<svg enable-background="new 0 0 512 512" viewBox="0 0 512 512" xml:space="preserve"
		 xmlns="http://www.w3.org/2000/svg" xmlns:xlink="http://www.w3.org/1999/xlink"><g><path d="M259.7,506.2l-6.1,0c-5.2,0-9.5-4.3-9.5-9.5   v-481c0-5.2,4.3-9.5,9.5-9.5h6.1c5.2,0,9.5,4.3,9.5,9.5v481C269.2,502,265,506.2,259.7,506.2z" fill="#FFE235" stroke="#000000" stroke-miterlimit="10" stroke-width="8"/><path
	d="M435.6,430.9l-4.3,4.3c-3.7,3.7-9.7,3.7-13.4,0   L77.7,95.1c-3.7-3.7-3.7-9.7,0-13.4l4.3-4.3c3.7-3.7,9.7-3.7,13.4,0l340.1,340.1C439.3,421.1,439.3,427.2,435.6,430.9z"
	fill="#FFE235" stroke="#000000" stroke-miterlimit="10" stroke-width="8"/><path
	d="M506.7,253.2v6.1c0,5.2-4.3,9.5-9.5,9.5h-481   c-5.2,0-9.5-4.3-9.5-9.5v-6.1c0-5.2,4.3-9.5,9.5-9.5h481C502.4,243.7,506.7,247.9,506.7,253.2z"
	fill="#FFE235" stroke="#000000" stroke-miterlimit="10" stroke-width="8"/><path
	d="M431.3,77.3l4.3,4.3c3.7,3.7,3.7,9.7,0,13.4   L95.5,435.2c-3.7,3.7-9.7,3.7-13.4,0l-4.3-4.3c-3.7-3.7-3.7-9.7,0-13.4L417.9,77.3C421.6,73.6,427.6,73.6,431.3,77.3z"
	fill="#FFE235" stroke="#000000" stroke-miterlimit="10" stroke-width="8"/><circle cx="256.7" cy="256.2" fill="#FBC858"
																																									 r="166.5" stroke="#000000"
																																									 stroke-miterlimit="10"
																																									 stroke-width="8"/><circle cx="256.7"
																																																						 cy="256.2"
																																																						 fill="#FFE235"
																																																						 r="120.9"
																																																						 stroke="#000000"
																																																						 stroke-miterlimit="10"
																																																						 stroke-width="8"/><g><line fill="none" stroke="#000000" stroke-miterlimit="10" stroke-width="8" x1="256.7" x2="256.7" y1="136.5" y2="376"/>
	<line fill="none" stroke="#000000" stroke-miterlimit="10" stroke-width="8" x1="172" x2="341.4" y1="171.6" y2="340.9"/>
	<line fill="none" stroke="#000000" stroke-miterlimit="10" stroke-width="8" x1="136.9" x2="376.4" y1="256.2"
				y2="256.2"/>
	<line fill="none" stroke="#000000" stroke-miterlimit="10" stroke-width="8" x1="172" x2="341.4" y1="340.9" y2="171.6"/></g><circle
	cx="256.7" cy="256.2" fill="#FBC858" r="21.7" stroke="#000000" stroke-miterlimit="10" stroke-width="8"/></g></svg>
